<mxfile host="app.diagrams.net" modified="2024-07-18T13:51:06.562Z" agent="Mozilla/5.0 (Windows NT 10.0; Win64; x64) AppleWebKit/537.36 (KHTML, like Gecko) Chrome/126.0.0.0 Safari/537.36" etag="eGXLN_WQ1mmXMUBV-GY7" version="24.7.1" type="github">
  <diagram name="페이지-1" id="VzyhJSdZZ0hFjO7zdTp5">
    <mxGraphModel dx="1193" dy="1867" grid="1" gridSize="10" guides="1" tooltips="1" connect="1" arrows="1" fold="1" page="1" pageScale="1" pageWidth="827" pageHeight="1169" math="0" shadow="0">
      <root>
        <mxCell id="0" />
        <mxCell id="1" parent="0" />
        <mxCell id="2" value="title 앱만들기" style="ellipse;aspect=fixed;strokeWidth=2;whiteSpace=wrap;fontStyle=1;fillColor=#f5f5f5;fontColor=#333333;strokeColor=#666666;" parent="1" vertex="1">
          <mxGeometry x="363" y="164.5" width="120" height="120" as="geometry" />
        </mxCell>
        <mxCell id="3" value="연구" style="rounded=1;absoluteArcSize=1;arcSize=14;whiteSpace=wrap;strokeWidth=2;" parent="1" vertex="1">
          <mxGeometry x="516" y="283" width="52" height="37" as="geometry" />
        </mxCell>
        <mxCell id="4" value="핇기능" style="rounded=1;absoluteArcSize=1;arcSize=14;whiteSpace=wrap;strokeWidth=2;" parent="1" vertex="1">
          <mxGeometry x="384" y="316" width="68" height="37" as="geometry" />
        </mxCell>
        <mxCell id="5" value="디자인" style="rounded=1;absoluteArcSize=1;arcSize=14;whiteSpace=wrap;strokeWidth=2;" parent="1" vertex="1">
          <mxGeometry x="385" y="408" width="68" height="37" as="geometry" />
        </mxCell>
        <mxCell id="6" value="사용성" style="rounded=1;absoluteArcSize=1;arcSize=14;whiteSpace=wrap;strokeWidth=2;" parent="1" vertex="1">
          <mxGeometry x="503" y="419" width="68" height="37" as="geometry" />
        </mxCell>
        <mxCell id="7" value="UI/UX" style="rounded=1;absoluteArcSize=1;arcSize=14;whiteSpace=wrap;strokeWidth=2;" parent="1" vertex="1">
          <mxGeometry x="397" y="499" width="63" height="37" as="geometry" />
        </mxCell>
        <mxCell id="8" value="기능구현" style="rounded=1;absoluteArcSize=1;arcSize=14;whiteSpace=wrap;strokeWidth=2;" parent="1" vertex="1">
          <mxGeometry x="243" y="369" width="84" height="37" as="geometry" />
        </mxCell>
        <mxCell id="9" value="백엔드" style="rounded=1;absoluteArcSize=1;arcSize=14;whiteSpace=wrap;strokeWidth=2;" parent="1" vertex="1">
          <mxGeometry x="221" y="460" width="68" height="37" as="geometry" />
        </mxCell>
        <mxCell id="10" value="데이터베이스" style="rounded=1;absoluteArcSize=1;arcSize=14;whiteSpace=wrap;strokeWidth=2;" parent="1" vertex="1">
          <mxGeometry x="216" y="551" width="116" height="37" as="geometry" />
        </mxCell>
        <mxCell id="11" value="서버" style="rounded=1;absoluteArcSize=1;arcSize=14;whiteSpace=wrap;strokeWidth=2;" parent="1" vertex="1">
          <mxGeometry x="117" y="497" width="52" height="37" as="geometry" />
        </mxCell>
        <mxCell id="12" value="프론트엔드" style="rounded=1;absoluteArcSize=1;arcSize=14;whiteSpace=wrap;strokeWidth=2;" parent="1" vertex="1">
          <mxGeometry x="87" y="362" width="100" height="37" as="geometry" />
        </mxCell>
        <mxCell id="13" value="웹" style="rounded=1;absoluteArcSize=1;arcSize=14;whiteSpace=wrap;strokeWidth=2;" parent="1" vertex="1">
          <mxGeometry x="15" y="414" width="36" height="37" as="geometry" />
        </mxCell>
        <mxCell id="14" value="앱" style="rounded=1;absoluteArcSize=1;arcSize=14;whiteSpace=wrap;strokeWidth=2;" parent="1" vertex="1">
          <mxGeometry x="31" y="297" width="36" height="37" as="geometry" />
        </mxCell>
        <mxCell id="15" value="테스트" style="rounded=1;absoluteArcSize=1;arcSize=14;whiteSpace=wrap;strokeWidth=2;" parent="1" vertex="1">
          <mxGeometry x="235" y="283" width="68" height="37" as="geometry" />
        </mxCell>
        <mxCell id="16" value="단위테스트" style="rounded=1;absoluteArcSize=1;arcSize=14;whiteSpace=wrap;strokeWidth=2;" parent="1" vertex="1">
          <mxGeometry x="80" y="220" width="100" height="37" as="geometry" />
        </mxCell>
        <mxCell id="17" value="통합테스트" style="rounded=1;absoluteArcSize=1;arcSize=14;whiteSpace=wrap;strokeWidth=2;" parent="1" vertex="1">
          <mxGeometry x="80" y="146" width="100" height="37" as="geometry" />
        </mxCell>
        <mxCell id="18" value="개발환경" style="rounded=1;absoluteArcSize=1;arcSize=14;whiteSpace=wrap;strokeWidth=2;" parent="1" vertex="1">
          <mxGeometry x="568" y="197" width="84" height="37" as="geometry" />
        </mxCell>
        <mxCell id="19" value="툴" style="rounded=1;absoluteArcSize=1;arcSize=14;whiteSpace=wrap;strokeWidth=2;" parent="1" vertex="1">
          <mxGeometry x="550" y="80" width="36" height="37" as="geometry" />
        </mxCell>
        <mxCell id="20" value="IDE" style="rounded=1;absoluteArcSize=1;arcSize=14;whiteSpace=wrap;strokeWidth=2;" parent="1" vertex="1">
          <mxGeometry x="507" y="-22" width="43" height="37" as="geometry" />
        </mxCell>
        <mxCell id="21" value="에디터" style="rounded=1;absoluteArcSize=1;arcSize=14;whiteSpace=wrap;strokeWidth=2;" parent="1" vertex="1">
          <mxGeometry x="435" y="52" width="68" height="37" as="geometry" />
        </mxCell>
        <mxCell id="22" value="언어" style="rounded=1;absoluteArcSize=1;arcSize=14;whiteSpace=wrap;strokeWidth=2;" parent="1" vertex="1">
          <mxGeometry x="697" y="77" width="52" height="37" as="geometry" />
        </mxCell>
        <mxCell id="23" value="프로그래밍언어" style="rounded=1;absoluteArcSize=1;arcSize=14;whiteSpace=wrap;strokeWidth=2;" parent="1" vertex="1">
          <mxGeometry x="573" y="15" width="132" height="37" as="geometry" />
        </mxCell>
        <mxCell id="24" value="마크업언어" style="rounded=1;absoluteArcSize=1;arcSize=14;whiteSpace=wrap;strokeWidth=2;" parent="1" vertex="1">
          <mxGeometry x="810" y="40" width="100" height="37" as="geometry" />
        </mxCell>
        <mxCell id="25" value="라이브러리" style="rounded=1;absoluteArcSize=1;arcSize=14;whiteSpace=wrap;strokeWidth=2;" parent="1" vertex="1">
          <mxGeometry x="727" y="199" width="100" height="37" as="geometry" />
        </mxCell>
        <mxCell id="26" value="오픈소스" style="rounded=1;absoluteArcSize=1;arcSize=14;whiteSpace=wrap;strokeWidth=2;" parent="1" vertex="1">
          <mxGeometry x="938" y="183" width="84" height="37" as="geometry" />
        </mxCell>
        <mxCell id="27" value="외부라이브러리" style="rounded=1;absoluteArcSize=1;arcSize=14;whiteSpace=wrap;strokeWidth=2;" parent="1" vertex="1">
          <mxGeometry x="890" y="103" width="132" height="37" as="geometry" />
        </mxCell>
        <mxCell id="28" value="배포" style="rounded=1;absoluteArcSize=1;arcSize=14;whiteSpace=wrap;strokeWidth=2;" parent="1" vertex="1">
          <mxGeometry x="618" y="351" width="52" height="37" as="geometry" />
        </mxCell>
        <mxCell id="29" value="플랫폼" style="rounded=1;absoluteArcSize=1;arcSize=14;whiteSpace=wrap;strokeWidth=2;" parent="1" vertex="1">
          <mxGeometry x="629" y="444" width="68" height="37" as="geometry" />
        </mxCell>
        <mxCell id="30" value="클라우드" style="rounded=1;absoluteArcSize=1;arcSize=14;whiteSpace=wrap;strokeWidth=2;" parent="1" vertex="1">
          <mxGeometry x="558" y="526" width="84" height="37" as="geometry" />
        </mxCell>
        <mxCell id="31" value="자체서버" style="rounded=1;absoluteArcSize=1;arcSize=14;whiteSpace=wrap;strokeWidth=2;" parent="1" vertex="1">
          <mxGeometry x="701" y="520" width="84" height="37" as="geometry" />
        </mxCell>
        <mxCell id="32" value="버전관리" style="rounded=1;absoluteArcSize=1;arcSize=14;whiteSpace=wrap;strokeWidth=2;" parent="1" vertex="1">
          <mxGeometry x="724" y="344" width="84" height="37" as="geometry" />
        </mxCell>
        <mxCell id="33" value="Git" style="rounded=1;absoluteArcSize=1;arcSize=14;whiteSpace=wrap;strokeWidth=2;" parent="1" vertex="1">
          <mxGeometry x="863" y="345" width="42" height="37" as="geometry" />
        </mxCell>
        <mxCell id="34" value="SVN" style="rounded=1;absoluteArcSize=1;arcSize=14;whiteSpace=wrap;strokeWidth=2;" parent="1" vertex="1">
          <mxGeometry x="792" y="428" width="47" height="37" as="geometry" />
        </mxCell>
        <mxCell id="35" style="endArrow=none" parent="1" source="2" target="3" edge="1">
          <mxGeometry relative="1" as="geometry" />
        </mxCell>
        <mxCell id="36" style="endArrow=none" parent="1" source="3" target="4" edge="1">
          <mxGeometry relative="1" as="geometry" />
        </mxCell>
        <mxCell id="37" style="endArrow=none" parent="1" source="3" target="18" edge="1">
          <mxGeometry relative="1" as="geometry" />
        </mxCell>
        <mxCell id="38" style="endArrow=none" parent="1" source="3" target="28" edge="1">
          <mxGeometry relative="1" as="geometry" />
        </mxCell>
        <mxCell id="39" style="endArrow=none" parent="1" source="4" target="5" edge="1">
          <mxGeometry relative="1" as="geometry" />
        </mxCell>
        <mxCell id="40" style="endArrow=none" parent="1" source="4" target="8" edge="1">
          <mxGeometry relative="1" as="geometry" />
        </mxCell>
        <mxCell id="41" style="endArrow=none" parent="1" source="4" target="15" edge="1">
          <mxGeometry relative="1" as="geometry" />
        </mxCell>
        <mxCell id="42" style="endArrow=none" parent="1" source="5" target="6" edge="1">
          <mxGeometry relative="1" as="geometry" />
        </mxCell>
        <mxCell id="43" style="endArrow=none" parent="1" source="5" target="7" edge="1">
          <mxGeometry relative="1" as="geometry" />
        </mxCell>
        <mxCell id="44" style="endArrow=none" parent="1" source="8" target="9" edge="1">
          <mxGeometry relative="1" as="geometry" />
        </mxCell>
        <mxCell id="45" style="endArrow=none" parent="1" source="8" target="12" edge="1">
          <mxGeometry relative="1" as="geometry" />
        </mxCell>
        <mxCell id="46" style="endArrow=none" parent="1" source="9" target="10" edge="1">
          <mxGeometry relative="1" as="geometry" />
        </mxCell>
        <mxCell id="47" style="endArrow=none" parent="1" source="9" target="11" edge="1">
          <mxGeometry relative="1" as="geometry" />
        </mxCell>
        <mxCell id="48" style="endArrow=none" parent="1" source="12" target="13" edge="1">
          <mxGeometry relative="1" as="geometry" />
        </mxCell>
        <mxCell id="49" style="endArrow=none" parent="1" source="12" target="14" edge="1">
          <mxGeometry relative="1" as="geometry" />
        </mxCell>
        <mxCell id="50" style="endArrow=none" parent="1" source="15" target="16" edge="1">
          <mxGeometry relative="1" as="geometry" />
        </mxCell>
        <mxCell id="51" style="endArrow=none" parent="1" source="15" target="17" edge="1">
          <mxGeometry relative="1" as="geometry" />
        </mxCell>
        <mxCell id="52" style="endArrow=none" parent="1" source="18" target="19" edge="1">
          <mxGeometry relative="1" as="geometry" />
        </mxCell>
        <mxCell id="53" style="endArrow=none" parent="1" source="18" target="22" edge="1">
          <mxGeometry relative="1" as="geometry" />
        </mxCell>
        <mxCell id="54" style="endArrow=none" parent="1" source="18" target="25" edge="1">
          <mxGeometry relative="1" as="geometry" />
        </mxCell>
        <mxCell id="55" style="endArrow=none" parent="1" source="19" target="20" edge="1">
          <mxGeometry relative="1" as="geometry" />
        </mxCell>
        <mxCell id="56" style="endArrow=none" parent="1" source="19" target="21" edge="1">
          <mxGeometry relative="1" as="geometry" />
        </mxCell>
        <mxCell id="57" style="endArrow=none" parent="1" source="22" target="23" edge="1">
          <mxGeometry relative="1" as="geometry" />
        </mxCell>
        <mxCell id="58" style="endArrow=none" parent="1" source="22" target="24" edge="1">
          <mxGeometry relative="1" as="geometry" />
        </mxCell>
        <mxCell id="59" style="endArrow=none" parent="1" source="25" target="26" edge="1">
          <mxGeometry relative="1" as="geometry" />
        </mxCell>
        <mxCell id="60" style="endArrow=none" parent="1" source="25" target="27" edge="1">
          <mxGeometry relative="1" as="geometry" />
        </mxCell>
        <mxCell id="61" style="endArrow=none" parent="1" source="28" target="29" edge="1">
          <mxGeometry relative="1" as="geometry" />
        </mxCell>
        <mxCell id="62" style="endArrow=none" parent="1" source="28" target="32" edge="1">
          <mxGeometry relative="1" as="geometry" />
        </mxCell>
        <mxCell id="63" style="endArrow=none" parent="1" source="29" target="30" edge="1">
          <mxGeometry relative="1" as="geometry" />
        </mxCell>
        <mxCell id="64" style="endArrow=none" parent="1" source="29" target="31" edge="1">
          <mxGeometry relative="1" as="geometry" />
        </mxCell>
        <mxCell id="65" style="endArrow=none" parent="1" source="32" target="33" edge="1">
          <mxGeometry relative="1" as="geometry" />
        </mxCell>
        <mxCell id="66" style="endArrow=none" parent="1" source="32" target="34" edge="1">
          <mxGeometry relative="1" as="geometry" />
        </mxCell>
      </root>
    </mxGraphModel>
  </diagram>
</mxfile>
